# xmcd
#
# Track frame offsets: 
#        150
#        11208
#        22040
#        47554
#        68845
#        80027
#        97441
#        121242
#        134170
#        164435
#        189023
#
# Disc length: 2619 seconds
#
# Revision: 0
# Processed by: cddbd v1.5.2PL0 Copyright (c) Steve Scherf et al.
# Submitted via: ExactAudioCopy v0.95b4
#
DISCID=9c0a390b
DTITLE=Sweet Pain - Sweet Pain
DYEAR=1970
DGENRE=Country
TTITLE0=The Steamer
TTITLE1=Changin' Your Mind
TTITLE2=Rubbin' And Scrapin'
TTITLE3=Sick And Tired
TTITLE4=The Rooster Crows At Midnight
TTITLE5=Troubles' Trouble
TTITLE6=Don't Break Down
TTITLE7=It's A Woman's Way
TTITLE8=General Smit
TTITLE9=Trouble In Mind
TTITLE10=Song Of The Medusa
EXTD=
EXTT0=
EXTT1=
EXTT2=
EXTT3=
EXTT4=
EXTT5=
EXTT6=
EXTT7=
EXTT8=
EXTT9=
EXTT10=
PLAYORDER=
